# xmcd CD database file
#
# Track frame offsets:
#	150
#	25106
#	65243
#	99251
#	110119
#	147747
#	186779
#	216512
#	235423
#	268846
#	306898
#	333521
#
# Disc length: 4688 seconds
#
# Revision: 0
# Processed by: cddbd v1.5.2PL0 Copyright (c) Steve Scherf et al.
# Submitted via: CDex 1.60beta1
#
DISCID=c2124e0c
DTITLE=Nacho Labrada - Desordenes Ordenados
DYEAR=2007
DGENRE=Jazz
TTITLE0=Mecanismos
TTITLE1=Claude D
TTITLE2=Madre Tierra
TTITLE3=Introducción A Evolución - Involución
TTITLE4=Evolución - Involución
TTITLE5=Chacarera Para Un Loco
TTITLE6=Improvisación 01
TTITLE7=Alertas En El Pensamiento
TTITLE8=El Tiempo Esta Despues
TTITLE9=La Indecisa
TTITLE10=Improvisación 02
TTITLE11=Minuto De Silencio
EXTD=YEAR: 2007
EXTT0=
EXTT1=
EXTT2=
EXTT3=
EXTT4=
EXTT5=
EXTT6=
EXTT7=
EXTT8=
EXTT9=
EXTT10=
EXTT11=
PLAYORDER=
